<svg width="20" height="20" viewBox="0 0 20 20" fill="none" xmlns="http://www.w3.org/2000/svg">
<path fill-rule="evenodd" clip-rule="evenodd" d="M16.707 5.29303C16.8945 5.48056 16.9998 5.73487 16.9998 6.00003C16.9998 6.26519 16.8945 6.5195 16.707 6.70703L8.70698 14.707C8.51945 14.8945 8.26514 14.9998 7.99998 14.9998C7.73482 14.9998 7.48051 14.8945 7.29298 14.707L3.29298 10.707C3.11082 10.5184 3.01003 10.2658 3.01231 10.0036C3.01458 9.74143 3.11975 9.49062 3.30516 9.30521C3.49057 9.1198 3.74138 9.01464 4.00358 9.01236C4.26578 9.01008 4.51838 9.11087 4.70698 9.29303L7.99998 12.586L15.293 5.29303C15.4805 5.10556 15.7348 5.00024 16 5.00024C16.2651 5.00024 16.5195 5.10556 16.707 5.29303Z" fill="#0694A2"/>
</svg>
